<?xml version="1.0" encoding="UTF-8"?>
<svg id="Camada_2" data-name="Camada 2" xmlns="http://www.w3.org/2000/svg" viewBox="0 0 156.66 163.74">
  <defs>
    <style>
      .cls-1 {
        fill: #203c89;
      }

      .cls-2 {
        font-size: 14px;
      }

      .cls-2, .cls-3 {
        fill: #1f3d87;
        font-family: Alkalami-Regular, Alkalami;
      }

      .cls-4 {
        stroke-width: 2px;
      }

      .cls-4, .cls-5 {
        fill: #fff;
        stroke: #203c89;
        stroke-miterlimit: 10;
      }

      .cls-3 {
        font-size: 13px;
      }

      .cls-5 {
        stroke-width: 3px;
      }
    </style>
  </defs>
  <g id="Camada_1-2" data-name="Camada 1">
    <g id="ISO-9001">
      <g>
        <ellipse class="cls-4" cx="79.5" cy="77.81" rx="70.87" ry="75" transform="translate(-.44 155.17) rotate(-88.45)"/>
        <text class="cls-3" transform="translate(15.47 106.04) rotate(57.38) scale(.93 1) skewX(-.01)"><tspan x="0" y="0">I</tspan></text>
        <text class="cls-3" transform="translate(17.9 110.05) rotate(51.89) scale(.93 1)"><tspan x="0" y="0">N</tspan></text>
        <text class="cls-3" transform="translate(23.77 117.49) rotate(44.74) scale(.93 1) skewX(.01)"><tspan x="0" y="0">D</tspan></text>
        <text class="cls-3" transform="translate(30.09 123.77) rotate(37.61) scale(.93 1) skewX(.03)"><tspan x="0" y="0">Ú</tspan></text>
        <text class="cls-3" transform="translate(37.68 129.54) rotate(31.23) scale(.93 1) skewX(.04)"><tspan x="0" y="0">S</tspan></text>
        <text class="cls-3" transform="translate(43.73 133.24) rotate(25.46) scale(.93 1) skewX(.05)"><tspan x="0" y="0">T</tspan></text>
        <text class="cls-3" transform="translate(51.07 136.74) rotate(19.19) scale(.93 1) skewX(.05)"><tspan x="0" y="0">R</tspan></text>
        <text class="cls-3" transform="translate(58.91 139.39) rotate(14.35) scale(.93 1) skewX(.06)"><tspan x="0" y="0">I</tspan></text>
        <text class="cls-3" transform="translate(63.36 140.62) rotate(9.49) scale(.93 1) skewX(.06)"><tspan x="0" y="0">A</tspan></text>
        <text class="cls-3" transform="translate(71.81 142) rotate(3.75) scale(.93 1) skewX(.06)"><tspan x="0" y="0">S</tspan></text>
        <text class="cls-3" transform="translate(78.65 142.39) rotate(.39) scale(.93 1) skewX(.06)"><tspan x="0" y="0"> </tspan></text>
        <text class="cls-3" transform="translate(80.81 142.48) rotate(-3) scale(.93 1) skewX(.06)"><tspan x="0" y="0">S</tspan></text>
        <text class="cls-3" transform="translate(87.89 142.15) rotate(-8.95) scale(.93 1) skewX(.05)"><tspan x="0" y="0">Ã</tspan></text>
        <text class="cls-3" transform="translate(96.49 140.79) rotate(-15.6) scale(.93 1) skewX(.04)"><tspan x="0" y="0">O</tspan></text>
        <text class="cls-3" transform="translate(104.59 138.42) rotate(-19.69) scale(.93 1) skewX(.04)"><tspan x="0" y="0"> </tspan></text>
        <text class="cls-3" transform="translate(106.86 137.84) rotate(-25.05) scale(.93 1) skewX(.03)"><tspan x="0" y="0">M</tspan></text>
        <text class="cls-3" transform="translate(117.36 132.72) rotate(-31.45) scale(.93 1) skewX(.02)"><tspan x="0" y="0">I</tspan></text>
        <text class="cls-3" transform="translate(121.4 130.37) rotate(-36.74) scale(.93 1)"><tspan x="0" y="0">G</tspan></text>
        <text class="cls-3" transform="translate(128.66 124.96) rotate(-44.16) scale(.93 1) skewX(-.01)"><tspan x="0" y="0">U</tspan></text>
        <text class="cls-3" transform="translate(135.5 118.22) rotate(-51.01) scale(.93 1) skewX(-.02)"><tspan x="0" y="0">E</tspan></text>
        <text class="cls-3" transform="translate(140.05 112.61) rotate(-56.95) scale(.93 1) skewX(-.03)"><tspan x="0" y="0">L</tspan></text>
        <text class="cls-2" transform="translate(20.68 90.84) rotate(-94.3) scale(.94 1) skewX(-.03)"><tspan x="0" y="0">S</tspan></text>
        <text class="cls-2" transform="translate(20.12 83.53) rotate(-87.54) scale(.94 1) skewX(-.03)"><tspan x="0" y="0">I</tspan></text>
        <text class="cls-2" transform="translate(20.19 78.86) rotate(-83.05) scale(.94 1) skewX(-.03)"><tspan x="0" y="0">S</tspan></text>
        <text class="cls-2" transform="translate(21.02 71.58) rotate(-75.54) scale(.94 1) skewX(-.03)"><tspan x="0" y="0">T</tspan></text>
        <text class="cls-2" transform="translate(23.12 63.43) rotate(-67.88) scale(.94 1) skewX(-.02)"><tspan x="0" y="0">E</tspan></text>
        <text class="cls-2" transform="translate(25.78 56.29) rotate(-58.29) scale(.94 1) skewX(-.01)"><tspan x="0" y="0">M</tspan></text>
        <text class="cls-2" transform="translate(32.38 45.82) rotate(-48.05) scale(.94 1)"><tspan x="0" y="0">A</tspan></text>
        <text class="cls-2" transform="translate(38.45 39.28) rotate(-42.78) scale(.94 1)"><tspan x="0" y="0"> </tspan></text>
        <text class="cls-2" transform="translate(39.9 37.68) rotate(-37.41) scale(.94 1)"><tspan x="0" y="0">D</tspan></text>
        <text class="cls-2" transform="translate(47.23 32.11) rotate(-29.38) scale(.94 1) skewX(.01)"><tspan x="0" y="0">E</tspan></text>
        <text class="cls-2" transform="translate(53.73 28.55) rotate(-24.76) scale(.94 1) skewX(.02)"><tspan x="0" y="0"> </tspan></text>
        <text class="cls-2" transform="translate(55.59 27.48) rotate(-19.24) scale(.94 1) skewX(.02)"><tspan x="0" y="0">G</tspan></text>
        <text class="cls-2" transform="translate(64.42 24.43) rotate(-11.01) scale(.94 1) skewX(.03)"><tspan x="0" y="0">E</tspan></text>
        <text class="cls-2" transform="translate(71.79 22.98) rotate(-3.82) scale(.94 1) skewX(.03)"><tspan x="0" y="0">S</tspan></text>
        <text class="cls-2" transform="translate(79.12 22.43) rotate(3.66) scale(.94 1) skewX(.03)"><tspan x="0" y="0">T</tspan></text>
        <text class="cls-2" transform="translate(87.53 22.91) rotate(12.05) scale(.94 1) skewX(.03)"><tspan x="0" y="0">Ã</tspan></text>
        <text class="cls-2" transform="translate(96.4 24.78) rotate(20.87) scale(.94 1) skewX(.02)"><tspan x="0" y="0">O</tspan></text>
        <text class="cls-2" transform="translate(104.69 28.08) rotate(26.25) scale(.94 1) skewX(.02)"><tspan x="0" y="0"> </tspan></text>
        <text class="cls-2" transform="translate(106.58 28.96) rotate(29.5) scale(.94 1) skewX(.02)"><tspan x="0" y="0">I</tspan></text>
        <text class="cls-2" transform="translate(110.82 31.15) rotate(36.49) scale(.94 1)"><tspan x="0" y="0">N</tspan></text>
        <text class="cls-2" transform="translate(118.69 37.01) rotate(45.2) scale(.94 1)"><tspan x="0" y="0">T</tspan></text>
        <text class="cls-2" transform="translate(124.62 42.98) rotate(52.78) scale(.94 1)"><tspan x="0" y="0">E</tspan></text>
        <text class="cls-2" transform="translate(129.26 48.94) rotate(60.83) scale(.94 1) skewX(-.01)"><tspan x="0" y="0">G</tspan></text>
        <text class="cls-2" transform="translate(133.83 57.1) rotate(69.52) scale(.94 1) skewX(-.02)"><tspan x="0" y="0">R</tspan></text>
        <text class="cls-2" transform="translate(136.93 65.3) rotate(78.06) scale(.94 1) skewX(-.03)"><tspan x="0" y="0">A</tspan></text>
        <text class="cls-2" transform="translate(138.83 74.16) rotate(86.78) scale(.94 1) skewX(-.03)"><tspan x="0" y="0">D</tspan></text>
        <text class="cls-2" transform="translate(139.37 83.37) rotate(95.33) scale(.94 1) skewX(-.03)"><tspan x="0" y="0">O</tspan></text>
        <ellipse class="cls-5" cx="79.8" cy="78.1" rx="49.59" ry="52.5" transform="translate(-.43 155.75) rotate(-88.45)"/>
      </g>
      <g>
        <path class="cls-1" d="m61.43,44.66v21.6l2.77.72c.07.46.01.88-.18,1.26-2.16-.12-3.62-.18-4.39-.18-1.06,0-2.7.06-4.93.18-.07-.5-.05-.92.07-1.26,1.32-.17,2.28-.41,2.88-.72v-21.6l-2.77-.72c-.07-.46-.01-.88.18-1.26,2.16.12,3.62.18,4.39.18,1.08,0,2.72-.06,4.93-.18.07.48.05.9-.07,1.26-1.25.22-2.21.46-2.88.72Z"/>
        <path class="cls-1" d="m74.9,68.74c-3.24,0-5.75-.42-7.52-1.26,0-2.14.31-4.22.94-6.26.05,0,.12,0,.22-.02.1-.01.18-.02.25-.02.43,0,.8.07,1.12.22l.58,4.79c1.51.36,2.81.54,3.89.54.84,0,1.7-.1,2.59-.29.89-.19,1.66-.59,2.32-1.19.66-.6.99-1.42.99-2.45,0-.94-.14-1.69-.41-2.27-.28-.58-.91-1.21-1.91-1.89-1-.68-2.55-1.48-4.66-2.39-2.16-.96-3.68-1.99-4.55-3.08-.88-1.09-1.29-2.56-1.24-4.41.02-2.11.91-3.72,2.66-4.82,1.75-1.1,3.95-1.66,6.59-1.66,2.23,0,4.27.36,6.12,1.08.07,1.82-.3,3.85-1.12,6.08-.1.02-.25.04-.47.04-.41,0-.78-.07-1.12-.22l-.4-4.79c-1.08-.31-2.16-.47-3.24-.47-1.58,0-2.91.34-3.98,1.03-1.07.68-1.61,1.72-1.64,3.11-.02,1.1.29,2,.95,2.7.66.7,2.06,1.52,4.19,2.48,1.56.7,2.77,1.28,3.64,1.75.86.47,1.65,1.02,2.36,1.66.71.64,1.22,1.36,1.53,2.18.31.82.47,1.78.47,2.88-.05,2.23-.97,3.95-2.77,5.15-1.8,1.2-3.92,1.8-6.37,1.8Z"/>
        <path class="cls-1" d="m86.81,55.42c0-3.98,1.12-7.19,3.35-9.63,2.23-2.44,5.09-3.65,8.57-3.65s6.44,1.23,8.68,3.69c2.23,2.46,3.35,5.66,3.35,9.59s-1.1,7.24-3.31,9.68c-2.21,2.45-5.11,3.67-8.71,3.67s-6.52-1.22-8.68-3.67c-2.16-2.45-3.24-5.68-3.24-9.68Zm19.8-.25c0-1.94-.29-3.76-.88-5.45-.59-1.69-1.51-3.1-2.75-4.23-1.25-1.13-2.7-1.69-4.36-1.69-1.34,0-2.52.33-3.53.99-1.01.66-1.81,1.56-2.39,2.7-.59,1.14-1.03,2.4-1.31,3.78-.29,1.38-.43,2.87-.43,4.48,0,3.24.74,5.95,2.21,8.12,1.48,2.17,3.46,3.26,5.96,3.26s4.31-1.13,5.58-3.4c1.27-2.27,1.91-5.12,1.91-8.55Z"/>
        <path class="cls-1" d="m44.08,109.86c6.07-.86,9.6-3.94,10.58-9.22-1.85,1.22-3.84,1.86-5.98,1.91-2.11,0-3.89-.76-5.35-2.29-1.45-1.52-2.19-3.71-2.21-6.57.02-2.47.82-4.48,2.39-6.01,1.57-1.54,3.51-2.32,5.81-2.34,2.9,0,5.15,1.01,6.75,3.02,1.6,2.02,2.39,4.73,2.39,8.14-.02,4.51-1.28,8.03-3.78,10.57-2.5,2.53-5.96,4.11-10.4,4.73-.1-.19-.17-.5-.22-.92-.05-.42-.05-.76,0-1.03Zm10.87-12.35c-.02-3.53-.54-6.18-1.55-7.96-1.01-1.78-2.35-2.66-4.03-2.66-1.39.02-2.51.68-3.37,1.96-.85,1.28-1.28,2.91-1.28,4.88,0,2.18.46,3.87,1.37,5.06s2.11,1.78,3.6,1.78c1.7,0,3.44-.55,5.22-1.66.02-.31.04-.78.04-1.4Z"/>
        <path class="cls-1" d="m61.87,99.09c0-2.04.21-3.88.63-5.53.42-1.64,1.03-3.06,1.82-4.25s1.75-2.11,2.88-2.75c1.13-.65,2.39-.97,3.78-.97s2.61.31,3.73.94c1.12.62,2.08,1.52,2.88,2.7.8,1.18,1.42,2.6,1.85,4.28.43,1.68.65,3.54.65,5.58s-.22,4.01-.67,5.62c-.44,1.61-1.08,2.94-1.91,4-.83,1.06-1.8,1.84-2.92,2.34-1.12.5-2.32.76-3.62.76s-2.5-.25-3.62-.76c-1.12-.5-2.08-1.28-2.9-2.32s-1.45-2.36-1.91-3.94c-.46-1.58-.68-3.48-.68-5.69Zm14.4-.14c0-1.32-.09-2.69-.27-4.1-.18-1.42-.48-2.72-.9-3.91-.42-1.19-.98-2.14-1.67-2.84-.7-.71-1.51-1.06-2.45-1.06s-1.78.35-2.47,1.06c-.68.71-1.24,1.66-1.66,2.84s-.72,2.49-.9,3.91c-.18,1.42-.27,2.78-.27,4.1s.09,2.73.27,4.09c.18,1.36.47,2.58.88,3.67.41,1.09.96,1.97,1.66,2.65.7.67,1.52,1.01,2.48,1.01s1.75-.32,2.45-.97c.7-.65,1.25-1.53,1.67-2.65.42-1.12.72-2.35.9-3.69.18-1.34.27-2.71.27-4.1Z"/>
        <path class="cls-1" d="m83.83,99.09c0-2.04.21-3.88.63-5.53.42-1.64,1.03-3.06,1.82-4.25s1.75-2.11,2.88-2.75c1.13-.65,2.39-.97,3.78-.97s2.61.31,3.73.94c1.12.62,2.08,1.52,2.88,2.7.8,1.18,1.42,2.6,1.85,4.28.43,1.68.65,3.54.65,5.58s-.22,4.01-.67,5.62c-.44,1.61-1.08,2.94-1.91,4-.83,1.06-1.8,1.84-2.92,2.34-1.12.5-2.32.76-3.62.76s-2.5-.25-3.62-.76c-1.12-.5-2.08-1.28-2.9-2.32s-1.45-2.36-1.91-3.94c-.46-1.58-.68-3.48-.68-5.69Zm14.4-.14c0-1.32-.09-2.69-.27-4.1-.18-1.42-.48-2.72-.9-3.91-.42-1.19-.98-2.14-1.67-2.84-.7-.71-1.51-1.06-2.45-1.06s-1.78.35-2.47,1.06c-.68.71-1.24,1.66-1.66,2.84s-.72,2.49-.9,3.91c-.18,1.42-.27,2.78-.27,4.1s.09,2.73.27,4.09c.18,1.36.47,2.58.88,3.67.41,1.09.96,1.97,1.66,2.65.7.67,1.52,1.01,2.48,1.01s1.75-.32,2.45-.97c.7-.65,1.25-1.53,1.67-2.65.42-1.12.72-2.35.9-3.69.18-1.34.27-2.71.27-4.1Z"/>
        <path class="cls-1" d="m112.52,86.42v23.04l3.53.72c.07.46.01.88-.18,1.26-2.16-.12-3.86-.18-5.11-.18-1.18,0-2.88.06-5.11.18-.07-.46-.05-.88.07-1.26,1.66-.24,2.72-.48,3.2-.72v-20.2l-3.92-.36c-.07-.48-.01-.9.18-1.26,2.23-.43,4.2-.97,5.9-1.62.46.02.94.16,1.44.4Z"/>
      </g>
    </g>
  </g>
</svg>