<?xml version="1.0" encoding="UTF-8"?>
<svg id="Camada_2" data-name="Camada 2" xmlns="http://www.w3.org/2000/svg" viewBox="0 0 152 159.27">
  <defs>
    <style>
      .cls-1 {
        fill: #203c89;
      }

      .cls-2 {
        font-size: 14px;
      }

      .cls-2, .cls-3 {
        fill: #1f3d87;
        font-family: Alkalami-Regular, Alkalami;
      }

      .cls-3 {
        font-size: 12px;
      }

      .cls-4 {
        stroke-width: 2px;
      }

      .cls-4, .cls-5 {
        fill: #fff;
        stroke: #203c89;
        stroke-miterlimit: 10;
      }

      .cls-5 {
        stroke-width: 3px;
      }
    </style>
  </defs>
  <g id="Camada_1-2" data-name="Camada 1">
    <g id="ISO-45001">
      <g>
        <ellipse class="cls-4" cx="76" cy="77.77" rx="70.87" ry="75" transform="translate(-3.81 151.63) rotate(-88.45)"/>
        <text class="cls-3" transform="translate(17.19 113.82) rotate(50.07) scale(.93 1)"><tspan x="0" y="0">I</tspan></text>
        <text class="cls-3" transform="translate(19.86 117.16) rotate(45.07) scale(.93 1)"><tspan x="0" y="0">N</tspan></text>
        <text class="cls-3" transform="translate(26 123.29) rotate(38.58) scale(.93 1) skewX(.02)"><tspan x="0" y="0">D</tspan></text>
        <text class="cls-3" transform="translate(32.38 128.4) rotate(32.05) scale(.93 1) skewX(.03)"><tspan x="0" y="0">Ú</tspan></text>
        <text class="cls-3" transform="translate(39.83 133) rotate(26.21) scale(.93 1) skewX(.04)"><tspan x="0" y="0">S</tspan></text>
        <text class="cls-3" transform="translate(45.64 135.89) rotate(20.94) scale(.93 1) skewX(.05)"><tspan x="0" y="0">T</tspan></text>
        <text class="cls-3" transform="translate(52.59 138.55) rotate(15.22) scale(.93 1) skewX(.05)"><tspan x="0" y="0">R</tspan></text>
        <text class="cls-3" transform="translate(59.91 140.49) rotate(10.8) scale(.93 1) skewX(.06)"><tspan x="0" y="0">I</tspan></text>
        <text class="cls-3" transform="translate(64.05 141.35) rotate(6.35) scale(.93 1) skewX(.06)"><tspan x="0" y="0">A</tspan></text>
        <text class="cls-3" transform="translate(71.91 142.2) rotate(1.05) scale(.93 1) skewX(.06)"><tspan x="0" y="0">S</tspan></text>
        <text class="cls-3" transform="translate(78.2 142.26) rotate(-2.03) scale(.93 1) skewX(.06)"><tspan x="0" y="0"> </tspan></text>
        <text class="cls-3" transform="translate(80.14 142.26) rotate(-5.11) scale(.93 1) skewX(.06)"><tspan x="0" y="0">S</tspan></text>
        <text class="cls-3" transform="translate(86.64 141.72) rotate(-10.59) scale(.93 1) skewX(.05)"><tspan x="0" y="0">Ã</tspan></text>
        <text class="cls-3" transform="translate(94.44 140.26) rotate(-16.65) scale(.93 1) skewX(.05)"><tspan x="0" y="0">O</tspan></text>
        <text class="cls-3" transform="translate(101.86 137.95) rotate(-20.41) scale(.93 1) skewX(.04)"><tspan x="0" y="0"> </tspan></text>
        <text class="cls-3" transform="translate(103.89 137.4) rotate(-25.3) scale(.93 1) skewX(.03)"><tspan x="0" y="0">M</tspan></text>
        <text class="cls-3" transform="translate(113.52 132.67) rotate(-31.15) scale(.93 1) skewX(.02)"><tspan x="0" y="0">I</tspan></text>
        <text class="cls-3" transform="translate(117.22 130.53) rotate(-35.98) scale(.93 1) skewX(.01)"><tspan x="0" y="0">G</tspan></text>
        <text class="cls-3" transform="translate(123.93 125.68) rotate(-42.72) scale(.93 1)"><tspan x="0" y="0">U</tspan></text>
        <text class="cls-3" transform="translate(130.35 119.68) rotate(-48.91) scale(.93 1) skewX(-.02)"><tspan x="0" y="0">E</tspan></text>
        <text class="cls-3" transform="translate(134.72 114.67) rotate(-54.31) scale(.93 1) skewX(-.03)"><tspan x="0" y="0">L</tspan></text>
        <text class="cls-2" transform="translate(17.18 90.78) rotate(-94.3) scale(.94 1) skewX(-.03)"><tspan x="0" y="0">S</tspan></text>
        <text class="cls-2" transform="translate(16.63 83.47) rotate(-87.54) scale(.94 1) skewX(-.03)"><tspan x="0" y="0">I</tspan></text>
        <text class="cls-2" transform="translate(16.7 78.8) rotate(-83.05) scale(.94 1) skewX(-.03)"><tspan x="0" y="0">S</tspan></text>
        <text class="cls-2" transform="translate(17.52 71.51) rotate(-75.54) scale(.94 1) skewX(-.03)"><tspan x="0" y="0">T</tspan></text>
        <text class="cls-2" transform="translate(19.63 63.37) rotate(-67.88) scale(.94 1) skewX(-.02)"><tspan x="0" y="0">E</tspan></text>
        <text class="cls-2" transform="translate(22.29 56.23) rotate(-58.29) scale(.94 1) skewX(-.01)"><tspan x="0" y="0">M</tspan></text>
        <text class="cls-2" transform="translate(28.89 45.76) rotate(-48.05) scale(.94 1)"><tspan x="0" y="0">A</tspan></text>
        <text class="cls-2" transform="translate(34.95 39.21) rotate(-42.78) scale(.94 1)"><tspan x="0" y="0"> </tspan></text>
        <text class="cls-2" transform="translate(36.41 37.62) rotate(-37.41) scale(.94 1)"><tspan x="0" y="0">D</tspan></text>
        <text class="cls-2" transform="translate(43.73 32.05) rotate(-29.38) scale(.94 1) skewX(.01)"><tspan x="0" y="0">E</tspan></text>
        <text class="cls-2" transform="translate(50.24 28.49) rotate(-24.76) scale(.94 1) skewX(.02)"><tspan x="0" y="0"> </tspan></text>
        <text class="cls-2" transform="translate(52.1 27.41) rotate(-19.24) scale(.94 1) skewX(.02)"><tspan x="0" y="0">G</tspan></text>
        <text class="cls-2" transform="translate(60.93 24.37) rotate(-11.01) scale(.94 1) skewX(.03)"><tspan x="0" y="0">E</tspan></text>
        <text class="cls-2" transform="translate(68.3 22.92) rotate(-3.82) scale(.94 1) skewX(.03)"><tspan x="0" y="0">S</tspan></text>
        <text class="cls-2" transform="translate(75.62 22.37) rotate(3.66) scale(.94 1) skewX(.03)"><tspan x="0" y="0">T</tspan></text>
        <text class="cls-2" transform="translate(84.04 22.85) rotate(12.05) scale(.94 1) skewX(.03)"><tspan x="0" y="0">Ã</tspan></text>
        <text class="cls-2" transform="translate(92.91 24.71) rotate(20.87) scale(.94 1) skewX(.02)"><tspan x="0" y="0">O</tspan></text>
        <text class="cls-2" transform="translate(101.19 28.02) rotate(26.25) scale(.94 1) skewX(.02)"><tspan x="0" y="0"> </tspan></text>
        <text class="cls-2" transform="translate(103.09 28.9) rotate(29.5) scale(.94 1) skewX(.02)"><tspan x="0" y="0">I</tspan></text>
        <text class="cls-2" transform="translate(107.32 31.09) rotate(36.49) scale(.94 1) skewX(.01)"><tspan x="0" y="0">N</tspan></text>
        <text class="cls-2" transform="translate(115.2 36.94) rotate(45.2) scale(.94 1)"><tspan x="0" y="0">T</tspan></text>
        <text class="cls-2" transform="translate(121.13 42.92) rotate(52.78) scale(.94 1)"><tspan x="0" y="0">E</tspan></text>
        <text class="cls-2" transform="translate(125.77 48.88) rotate(60.83) scale(.94 1) skewX(-.01)"><tspan x="0" y="0">G</tspan></text>
        <text class="cls-2" transform="translate(130.33 57.04) rotate(69.52) scale(.94 1) skewX(-.02)"><tspan x="0" y="0">R</tspan></text>
        <text class="cls-2" transform="translate(133.44 65.24) rotate(78.06) scale(.94 1) skewX(-.03)"><tspan x="0" y="0">A</tspan></text>
        <text class="cls-2" transform="translate(135.34 74.09) rotate(86.78) scale(.94 1) skewX(-.03)"><tspan x="0" y="0">D</tspan></text>
        <text class="cls-2" transform="translate(135.88 83.3) rotate(95.33) scale(.94 1) skewX(-.03)"><tspan x="0" y="0">O</tspan></text>
        <ellipse class="cls-5" cx="76.3" cy="78.06" rx="49.59" ry="52.5" transform="translate(-3.8 152.22) rotate(-88.45)"/>
      </g>
      <g>
        <path class="cls-1" d="m56.93,44.62v21.6l2.77.72c.07.46.01.88-.18,1.26-2.16-.12-3.62-.18-4.39-.18-1.06,0-2.7.06-4.93.18-.07-.5-.05-.92.07-1.26,1.32-.17,2.28-.41,2.88-.72v-21.6l-2.77-.72c-.07-.46-.01-.88.18-1.26,2.16.12,3.62.18,4.39.18,1.08,0,2.72-.06,4.93-.18.07.48.05.9-.07,1.26-1.25.22-2.21.46-2.88.72Z"/>
        <path class="cls-1" d="m70.4,68.71c-3.24,0-5.75-.42-7.52-1.26,0-2.14.31-4.22.94-6.26.05,0,.12,0,.22-.02.1-.01.18-.02.25-.02.43,0,.8.07,1.12.22l.58,4.79c1.51.36,2.81.54,3.89.54.84,0,1.7-.1,2.59-.29.89-.19,1.66-.59,2.32-1.19.66-.6.99-1.42.99-2.45,0-.94-.14-1.69-.41-2.27-.28-.58-.91-1.21-1.91-1.89-1-.68-2.55-1.48-4.66-2.39-2.16-.96-3.68-1.99-4.55-3.08-.88-1.09-1.29-2.56-1.24-4.41.02-2.11.91-3.72,2.66-4.82,1.75-1.1,3.95-1.66,6.59-1.66,2.23,0,4.27.36,6.12,1.08.07,1.82-.3,3.85-1.12,6.08-.1.02-.25.04-.47.04-.41,0-.78-.07-1.12-.22l-.4-4.79c-1.08-.31-2.16-.47-3.24-.47-1.58,0-2.91.34-3.98,1.03-1.07.68-1.61,1.72-1.64,3.11-.02,1.1.29,2,.95,2.7.66.7,2.06,1.52,4.19,2.48,1.56.7,2.77,1.28,3.64,1.75.86.47,1.65,1.02,2.36,1.66.71.64,1.22,1.36,1.53,2.18.31.82.47,1.78.47,2.88-.05,2.23-.97,3.95-2.77,5.15-1.8,1.2-3.92,1.8-6.37,1.8Z"/>
        <path class="cls-1" d="m82.31,55.39c0-3.98,1.12-7.19,3.35-9.63,2.23-2.44,5.09-3.65,8.57-3.65s6.44,1.23,8.68,3.69c2.23,2.46,3.35,5.66,3.35,9.59s-1.1,7.24-3.31,9.68c-2.21,2.45-5.11,3.67-8.71,3.67s-6.52-1.22-8.68-3.67c-2.16-2.45-3.24-5.68-3.24-9.68Zm19.8-.25c0-1.94-.29-3.76-.88-5.45-.59-1.69-1.51-3.1-2.75-4.23-1.25-1.13-2.7-1.69-4.36-1.69-1.34,0-2.52.33-3.53.99-1.01.66-1.81,1.56-2.39,2.7-.59,1.14-1.03,2.4-1.31,3.78-.29,1.38-.43,2.87-.43,4.48,0,3.24.74,5.95,2.21,8.12,1.48,2.17,3.46,3.26,5.96,3.26s4.31-1.13,5.58-3.4c1.27-2.27,1.91-5.12,1.91-8.55Z"/>
        <path class="cls-1" d="m41.7,105.97v-5.08h-9.97c-.18-.48-.25-.87-.23-1.16l11.02-15.87c.75-.35,1.52-.55,2.31-.59v15.38h3.47c.13.81.02,1.56-.33,2.24h-3.14v5.08l2.71.66c.07.42.01.8-.17,1.16-1.98-.11-3.32-.17-4.03-.17-.86,0-2.31.05-4.36.17-.07-.42-.04-.8.07-1.16.99-.13,1.87-.35,2.64-.66Zm.1-18.08l-1.98,3.04-5.48,7.72h7.36v-7.33l.17-3.43h-.07Z"/>
        <path class="cls-1" d="m64.4,100.3c-.02,2.24-.89,4.12-2.61,5.64-1.72,1.52-3.71,2.28-5.97,2.28-1.98,0-3.75-.53-5.31-1.58.09-1.8.35-3.62.79-5.44.48.02.87.09,1.15.2l.63,4.32c.99.48,1.99.73,3,.73,1.41,0,2.58-.48,3.51-1.45.94-.97,1.41-2.32,1.44-4.06,0-3.56-2.04-5.35-6.1-5.35-.9,0-2.05.11-3.43.33v-11.39h11.48c.04.26.07.52.07.76,0,.84-.18,1.57-.53,2.21h-9.01l-.13,6.4c1.21-.29,2.41-.43,3.6-.43,2.2,0,3.99.62,5.36,1.85,1.37,1.23,2.06,2.89,2.06,4.98Z"/>
        <path class="cls-1" d="m67.27,96.47c0-1.87.19-3.56.58-5.07.38-1.51.94-2.8,1.67-3.89.73-1.09,1.61-1.93,2.64-2.52,1.03-.59,2.19-.89,3.46-.89s2.39.29,3.42.86c1.02.57,1.9,1.4,2.64,2.48.74,1.08,1.3,2.39,1.7,3.93.4,1.54.59,3.25.59,5.12s-.2,3.67-.61,5.15c-.41,1.47-.99,2.69-1.75,3.66-.76.97-1.65,1.68-2.67,2.14-1.02.46-2.13.69-3.32.69s-2.29-.23-3.32-.69c-1.02-.46-1.91-1.17-2.66-2.13s-1.33-2.16-1.75-3.61-.63-3.19-.63-5.21Zm13.2-.13c0-1.21-.08-2.46-.25-3.76-.17-1.3-.44-2.49-.83-3.58s-.9-1.96-1.53-2.61c-.64-.65-1.39-.97-2.24-.97s-1.63.32-2.26.97-1.13,1.52-1.52,2.61c-.39,1.09-.66,2.28-.83,3.58-.17,1.3-.25,2.55-.25,3.76s.08,2.5.25,3.75c.17,1.24.43,2.37.81,3.37.37,1,.88,1.81,1.52,2.43.64.62,1.4.92,2.28.92s1.61-.3,2.24-.89c.64-.59,1.15-1.4,1.53-2.43s.66-2.15.83-3.38c.17-1.23.25-2.49.25-3.76Z"/>
        <path class="cls-1" d="m87.4,96.47c0-1.87.19-3.56.58-5.07.38-1.51.94-2.8,1.67-3.89.73-1.09,1.61-1.93,2.64-2.52,1.03-.59,2.19-.89,3.46-.89s2.39.29,3.42.86c1.02.57,1.9,1.4,2.64,2.48.74,1.08,1.3,2.39,1.7,3.93.4,1.54.59,3.25.59,5.12s-.2,3.67-.61,5.15c-.41,1.47-.99,2.69-1.75,3.66-.76.97-1.65,1.68-2.67,2.14-1.02.46-2.13.69-3.32.69s-2.29-.23-3.32-.69c-1.02-.46-1.91-1.17-2.66-2.13s-1.33-2.16-1.75-3.61-.63-3.19-.63-5.21Zm13.2-.13c0-1.21-.08-2.46-.25-3.76-.17-1.3-.44-2.49-.83-3.58s-.9-1.96-1.53-2.61c-.64-.65-1.39-.97-2.24-.97s-1.63.32-2.26.97-1.13,1.52-1.52,2.61c-.39,1.09-.66,2.28-.83,3.58-.17,1.3-.25,2.55-.25,3.76s.08,2.5.25,3.75c.17,1.24.43,2.37.81,3.37.37,1,.88,1.81,1.52,2.43.64.62,1.4.92,2.28.92s1.61-.3,2.24-.89c.64-.59,1.15-1.4,1.53-2.43s.66-2.15.83-3.38c.17-1.23.25-2.49.25-3.76Z"/>
        <path class="cls-1" d="m113.7,84.85v21.12l3.23.66c.07.42.01.8-.17,1.16-1.98-.11-3.54-.17-4.69-.17-1.08,0-2.64.05-4.69.17-.07-.42-.04-.8.07-1.16,1.52-.22,2.5-.44,2.94-.66v-18.51l-3.6-.33c-.07-.44-.01-.82.17-1.15,2.05-.4,3.85-.89,5.41-1.48.42.02.86.14,1.32.36Z"/>
      </g>
    </g>
  </g>
</svg>