<svg xmlns="http://www.w3.org/2000/svg" xmlns:xlink="http://www.w3.org/1999/xlink" width="1920" height="7800" viewBox="0 0 1920 7800">
  <defs>
    <clipPath id="clip-Web_1920_1">
      <rect width="1920" height="7800"/>
    </clipPath>
  </defs>
  <g id="Web_1920_1" data-name="Web 1920 – 1" clip-path="url(#clip-Web_1920_1)">
    <rect width="1920" height="7800" fill="#fff"/>
    <path id="Caminho_1" data-name="Caminho 1" d="M0-254.514S100.3-5.046,387.372,42.922c266.318,50.2,347.6-25.1,560.306-37.65,657.149-43.925,971.81,493.217,971.81,493.217v46.435L0,423.189Z" transform="translate(0.437 607.433)" fill="#00873b"/>
    <path id="Caminho_4" data-name="Caminho 4" d="M0-210.9S100.3-5.046,387.372,42.922c266.318,50.2,347.6-25.1,560.306-37.65,657.149-43.925,971.81,493.217,971.81,493.217v46.435L0,423.189Z" transform="translate(0.437 630.433)" fill="#00a649"/>
    <path id="Caminho_2" data-name="Caminho 2" d="M0-172.939s147.512,157.5,358.492,200.9S640.2,29.353,940.76-10.025c683.089-89.5,978.728,438.756,978.728,438.756V938.2s-350.5,186.954-952.718,0S0,938.2,0,938.2Z" transform="translate(0.437 722.796)" fill="#fc032b"/>
    <path id="Caminho_3" data-name="Caminho 3" d="M5.292,986.515S394.679,702.473,940.12,943.639s986.408,26.56,986.408,26.56" transform="translate(-6.528 20)" fill="none" stroke="#000" stroke-width="1" opacity="0.07"/>
    <path id="Caminho_3-2" data-name="Caminho 3" d="M5.292,986.515S394.679,702.473,940.12,943.639s986.408,26.56,986.408,26.56" transform="translate(-6.528 50)" fill="none" stroke="#000" stroke-width="1" opacity="0.15"/>
    <path id="Caminho_3-3" data-name="Caminho 3" d="M5.292,986.515S394.679,702.473,940.12,943.639s986.408,26.56,986.408,26.56" transform="translate(-6.528 80)" fill="none" stroke="#000" stroke-width="1" opacity="0.21"/>
    <path id="Caminho_3-4" data-name="Caminho 3" d="M5.292,986.515S394.679,702.473,940.12,943.639s986.408,26.56,986.408,26.56" transform="translate(-6.528 110)" fill="none" stroke="#000" stroke-width="1" opacity="0.32"/>
    <path id="Caminho_3-5" data-name="Caminho 3" d="M5.292,986.515S394.679,702.473,940.12,943.639s986.408,26.56,986.408,26.56" transform="translate(-6.528 140)" fill="none" stroke="#000" stroke-width="1" opacity="0.38"/>
    <path id="Caminho_3-6" data-name="Caminho 3" d="M5.292,986.515S394.679,702.473,940.12,943.639s986.408,26.56,986.408,26.56" transform="translate(-6.528 170)" fill="none" stroke="#000" stroke-width="1" opacity="0.5"/>
    <path id="Caminho_3-7" data-name="Caminho 3" d="M5.292,986.515S394.679,702.473,940.12,943.639s986.408,26.56,986.408,26.56" transform="translate(-6.528 200)" fill="none" stroke="#000" stroke-width="1" opacity="0.71"/>
    <path id="Caminho_3-8" data-name="Caminho 3" d="M5.292,986.515S394.679,702.473,940.12,943.639s986.408,26.56,986.408,26.56" transform="translate(-6.528 230)" fill="none" stroke="#000" stroke-width="1" opacity="0.87"/>
    <path id="Caminho_3-9" data-name="Caminho 3" d="M5.292,986.515S394.679,702.473,940.12,943.639s986.408,26.56,986.408,26.56" transform="translate(-6.528 260)" fill="none" stroke="#000" stroke-width="1" opacity="0.82"/>
    <path id="Caminho_3-10" data-name="Caminho 3" d="M5.292,986.515S394.679,702.473,940.12,943.639s986.408,26.56,986.408,26.56" transform="translate(-6.528 290)" fill="none" stroke="#000" stroke-width="1" opacity="0.85"/>
    <path id="Caminho_3-11" data-name="Caminho 3" d="M5.292,986.515S394.679,702.473,940.12,943.639s986.408,26.56,986.408,26.56" transform="translate(-6.528 320)" fill="none" stroke="#000" stroke-width="1" opacity="0.92"/>
    <path id="Caminho_3-12" data-name="Caminho 3" d="M5.292,986.515S394.679,702.473,940.12,943.639s986.408,26.56,986.408,26.56" transform="translate(-6.528 350)" fill="none" stroke="#000" stroke-width="1" opacity="0.88"/>
    <path id="Caminho_3-13" data-name="Caminho 3" d="M5.292,986.515S394.679,702.473,940.12,943.639c472.351,208.85,866.353,75.891,963.745,36.394,14.745-5.98,22.663-9.833,22.663-9.833" transform="translate(-6.528 380)" fill="none" stroke="#000" stroke-width="2" opacity="0.4"/>
    <path id="Caminho_3-14" data-name="Caminho 3" d="M5.292,986.515S394.679,702.473,940.12,943.639s986.408,26.56,986.408,26.56" transform="translate(-6.528 410)" fill="none" stroke="#000" stroke-width="2" opacity="0.47"/>
    <path id="Caminho_3-15" data-name="Caminho 3" d="M5.292,986.515S394.679,702.473,940.12,943.639s986.408,26.56,986.408,26.56" transform="translate(-6.528 440)" fill="none" stroke="#000" stroke-width="2" opacity="0.69"/>
    <path id="Caminho_3-16" data-name="Caminho 3" d="M5.292,986.515S394.679,702.473,940.12,943.639s986.408,26.56,986.408,26.56" transform="translate(-6.528 470)" fill="none" stroke="#000" stroke-width="2" opacity="0.79"/>
    <path id="Caminho_3-17" data-name="Caminho 3" d="M5.292,986.515S394.679,702.473,940.12,943.639s986.408,26.56,986.408,26.56" transform="translate(-6.528 500)" fill="none" stroke="#000" stroke-width="2"/>
    <path id="Caminho_3-18" data-name="Caminho 3" d="M5.292,986.515S394.679,702.473,940.12,943.639s986.408,26.56,986.408,26.56" transform="translate(-6.528 530)" fill="none" stroke="#000" stroke-width="2"/>
    <path id="Caminho_3-19" data-name="Caminho 3" d="M5.292,986.515S394.679,702.473,940.12,943.639s986.408,26.56,986.408,26.56" transform="translate(-6.528 560)" fill="none" stroke="#000" stroke-width="2"/>
    <path id="Caminho_3-20" data-name="Caminho 3" d="M5.292,986.515S394.679,702.473,940.12,943.639s986.408,26.56,986.408,26.56" transform="translate(-6.528 590)" fill="none" stroke="#000" stroke-width="2"/>
    <path id="Caminho_3-21" data-name="Caminho 3" d="M5.292,986.515S394.679,702.473,940.12,943.639s986.408,26.56,986.408,26.56" transform="translate(-6.528 620)" fill="none" stroke="#000" stroke-width="2"/>
    <path id="Caminho_3-22" data-name="Caminho 3" d="M5.292,986.515S394.679,702.473,940.12,943.639s986.408,26.56,986.408,26.56" transform="translate(-6.528 643)" fill="none" stroke="#000" stroke-width="2"/>
    <path id="Caminho_3-23" data-name="Caminho 3" d="M5.292,986.515S394.679,702.473,940.12,943.639s986.408,26.56,986.408,26.56" transform="translate(-6.528 666)" fill="none" stroke="#000" stroke-width="2"/>
    <path id="Caminho_3-24" data-name="Caminho 3" d="M5.292,986.515S394.679,702.473,940.12,943.639s986.408,26.56,986.408,26.56" transform="translate(-6.528 689)" fill="none" stroke="#000" stroke-width="2"/>
    <path id="Caminho_3-25" data-name="Caminho 3" d="M5.292,986.515S394.679,702.473,940.12,943.639s986.408,26.56,986.408,26.56" transform="translate(-6.528 712)" fill="none" stroke="#000" stroke-width="2"/>
    <path id="Caminho_3-26" data-name="Caminho 3" d="M5.292,986.515S394.679,702.473,940.12,943.639s986.408,26.56,986.408,26.56" transform="translate(-6.528 735)" fill="none" stroke="#000" stroke-width="2"/>
    <path id="Caminho_3-27" data-name="Caminho 3" d="M5.292,986.515S394.679,702.473,940.12,943.639s986.408,26.56,986.408,26.56" transform="translate(-6.528 758)" fill="none" stroke="#000" stroke-width="2"/>
    <path id="Caminho_3-28" data-name="Caminho 3" d="M5.292,986.515S394.679,702.473,940.12,943.639s986.408,26.56,986.408,26.56" transform="translate(-6.528 781)" fill="none" stroke="#000" stroke-width="2"/>
    <path id="Caminho_3-29" data-name="Caminho 3" d="M5.292,986.515S394.679,702.473,940.12,943.639s986.408,26.56,986.408,26.56" transform="translate(-6.528 804)" fill="none" stroke="#000" stroke-width="2"/>
    <g id="Retângulo_2" data-name="Retângulo 2" transform="translate(1463 1701)" fill="#fff" stroke="#707070" stroke-width="1">
      <rect width="1" height="6" stroke="none"/>
      <rect x="0.5" y="0.5" height="5" fill="none"/>
    </g>
    <path id="Caminho_5" data-name="Caminho 5" d="M0-172.939S147.512,19.037,358.492,71.928s281.709,1.7,582.268-46.3c683.089-109.083,978.728,534.782,978.728,534.782v620.974s-350.5,227.871-952.718,0-966.77,0-966.77,0Z" transform="translate(1920 2825.02) rotate(-180)" fill="#00a649"/>
    <g id="Grupo_2" data-name="Grupo 2" transform="translate(0 -293.056)">
      <g id="Grupo_1" data-name="Grupo 1" transform="translate(0.236)">
        <path id="Caminho_6" data-name="Caminho 6" d="M0-310.718S147.512-15.434,358.492,27.959,640.2,29.353,940.76-10.025c683.089-89.5,978.728,438.756,978.728,438.756V938.2s-350.5,186.954-952.718,0S0,938.2,0,938.2Z" transform="translate(1.437 2853.795)" fill="#fc032b"/>
        <path id="Caminho_7" data-name="Caminho 7" d="M5.292,986.515S394.679,702.473,940.12,943.639s986.408,26.56,986.408,26.56" transform="translate(-5.528 2151)" fill="none" stroke="#000" stroke-width="1" opacity="0.07"/>
        <path id="Caminho_8" data-name="Caminho 8" d="M5.292,986.515S394.679,702.473,940.12,943.639s986.408,26.56,986.408,26.56" transform="translate(-5.528 2181)" fill="none" stroke="#000" stroke-width="1" opacity="0.15"/>
        <path id="Caminho_9" data-name="Caminho 9" d="M5.292,986.515S394.679,702.473,940.12,943.639s986.408,26.56,986.408,26.56" transform="translate(-5.528 2211)" fill="none" stroke="#000" stroke-width="1" opacity="0.21"/>
        <path id="Caminho_10" data-name="Caminho 10" d="M5.292,986.515S394.679,702.473,940.12,943.639s986.408,26.56,986.408,26.56" transform="translate(-5.528 2241)" fill="none" stroke="#000" stroke-width="1" opacity="0.32"/>
        <path id="Caminho_11" data-name="Caminho 11" d="M5.292,986.515S394.679,702.473,940.12,943.639s986.408,26.56,986.408,26.56" transform="translate(-5.528 2271)" fill="none" stroke="#000" stroke-width="1" opacity="0.38"/>
        <path id="Caminho_12" data-name="Caminho 12" d="M5.292,986.515S394.679,702.473,940.12,943.639s986.408,26.56,986.408,26.56" transform="translate(-5.528 2301)" fill="none" stroke="#000" stroke-width="1" opacity="0.5"/>
        <path id="Caminho_13" data-name="Caminho 13" d="M5.292,986.515S394.679,702.473,940.12,943.639s986.408,26.56,986.408,26.56" transform="translate(-5.528 2331)" fill="none" stroke="#000" stroke-width="1" opacity="0.71"/>
        <path id="Caminho_14" data-name="Caminho 14" d="M5.292,986.515S394.679,702.473,940.12,943.639s986.408,26.56,986.408,26.56" transform="translate(-5.528 2361)" fill="none" stroke="#000" stroke-width="1" opacity="0.87"/>
        <path id="Caminho_15" data-name="Caminho 15" d="M5.292,986.515S394.679,702.473,940.12,943.639s986.408,26.56,986.408,26.56" transform="translate(-5.528 2391)" fill="none" stroke="#000" stroke-width="1" opacity="0.82"/>
        <path id="Caminho_16" data-name="Caminho 16" d="M5.292,986.515S394.679,702.473,940.12,943.639s986.408,26.56,986.408,26.56" transform="translate(-5.528 2421)" fill="none" stroke="#000" stroke-width="1" opacity="0.85"/>
        <path id="Caminho_17" data-name="Caminho 17" d="M5.292,986.515S394.679,702.473,940.12,943.639s986.408,26.56,986.408,26.56" transform="translate(-5.528 2451)" fill="none" stroke="#000" stroke-width="1" opacity="0.92"/>
        <path id="Caminho_18" data-name="Caminho 18" d="M5.292,986.515S394.679,702.473,940.12,943.639s986.408,26.56,986.408,26.56" transform="translate(-5.528 2481)" fill="none" stroke="#000" stroke-width="1" opacity="0.88"/>
        <path id="Caminho_19" data-name="Caminho 19" d="M5.292,986.515S394.679,702.473,940.12,943.639c472.351,208.85,866.353,75.891,963.745,36.394,14.745-5.98,22.663-9.833,22.663-9.833" transform="translate(-5.528 2511)" fill="none" stroke="#000" stroke-width="2" opacity="0.4"/>
        <path id="Caminho_20" data-name="Caminho 20" d="M5.292,986.515S394.679,702.473,940.12,943.639s986.408,26.56,986.408,26.56" transform="translate(-5.528 2541)" fill="none" stroke="#000" stroke-width="2" opacity="0.47"/>
        <path id="Caminho_21" data-name="Caminho 21" d="M5.292,986.515S394.679,702.473,940.12,943.639s986.408,26.56,986.408,26.56" transform="translate(-5.528 2571)" fill="none" stroke="#000" stroke-width="2" opacity="0.69"/>
        <path id="Caminho_22" data-name="Caminho 22" d="M5.292,986.515S394.679,702.473,940.12,943.639s986.408,26.56,986.408,26.56" transform="translate(-5.528 2601)" fill="none" stroke="#000" stroke-width="2" opacity="0.79"/>
        <path id="Caminho_23" data-name="Caminho 23" d="M5.292,986.515S394.679,702.473,940.12,943.639s986.408,26.56,986.408,26.56" transform="translate(-5.528 2631)" fill="none" stroke="#000" stroke-width="2"/>
        <path id="Caminho_24" data-name="Caminho 24" d="M5.292,986.515S394.679,702.473,940.12,943.639s986.408,26.56,986.408,26.56" transform="translate(-5.528 2661)" fill="none" stroke="#000" stroke-width="2"/>
        <path id="Caminho_25" data-name="Caminho 25" d="M5.292,986.515S394.679,702.473,940.12,943.639s986.408,26.56,986.408,26.56" transform="translate(-5.528 2691)" fill="none" stroke="#000" stroke-width="2"/>
        <path id="Caminho_26" data-name="Caminho 26" d="M5.292,986.515S394.679,702.473,940.12,943.639s986.408,26.56,986.408,26.56" transform="translate(-5.528 2721)" fill="none" stroke="#000" stroke-width="2"/>
        <path id="Caminho_27" data-name="Caminho 27" d="M5.292,986.515S394.679,702.473,940.12,943.639s986.408,26.56,986.408,26.56" transform="translate(-5.528 2751)" fill="none" stroke="#000" stroke-width="2"/>
        <path id="Caminho_28" data-name="Caminho 28" d="M5.292,986.515S394.679,702.473,940.12,943.639s986.408,26.56,986.408,26.56" transform="translate(-5.528 2774)" fill="none" stroke="#000" stroke-width="2"/>
        <path id="Caminho_29" data-name="Caminho 29" d="M5.292,986.515S394.679,702.473,940.12,943.639s986.408,26.56,986.408,26.56" transform="translate(-5.528 2797)" fill="none" stroke="#000" stroke-width="2"/>
        <path id="Caminho_30" data-name="Caminho 30" d="M5.292,986.515S394.679,702.473,940.12,943.639s986.408,26.56,986.408,26.56" transform="translate(-5.528 2820)" fill="none" stroke="#000" stroke-width="2"/>
        <path id="Caminho_31" data-name="Caminho 31" d="M5.292,986.515S394.679,702.473,940.12,943.639s986.408,26.56,986.408,26.56" transform="translate(-5.528 2843)" fill="none" stroke="#000" stroke-width="2"/>
      </g>
    </g>
    <path id="Caminho_32" data-name="Caminho 32" d="M0-172.939S147.512,19.037,358.492,71.928s281.709,1.7,582.268-46.3c683.089-109.083,978.728,534.782,978.728,534.782v620.974s-350.5,227.871-952.718,0-966.77,0-966.77,0Z" transform="translate(1919.488 4654.02) rotate(-180)" fill="#00a649"/>
    <g id="Grupo_3" data-name="Grupo 3" transform="translate(0 1540.944)">
      <g id="Grupo_1-2" data-name="Grupo 1" transform="translate(0.236)">
        <path id="Caminho_6-2" data-name="Caminho 6" d="M0-310.718S147.512-15.434,358.492,27.959,640.2,29.353,940.76-10.025c683.089-89.5,978.728,438.756,978.728,438.756V938.2s-350.5,186.954-952.718,0S0,938.2,0,938.2Z" transform="translate(1.437 2853.795)" fill="#fc032b"/>
        <path id="Caminho_7-2" data-name="Caminho 7" d="M5.292,986.515S394.679,702.473,940.12,943.639s986.408,26.56,986.408,26.56" transform="translate(-5.528 2151)" fill="none" stroke="#000" stroke-width="1" opacity="0.07"/>
        <path id="Caminho_8-2" data-name="Caminho 8" d="M5.292,986.515S394.679,702.473,940.12,943.639s986.408,26.56,986.408,26.56" transform="translate(-5.528 2181)" fill="none" stroke="#000" stroke-width="1" opacity="0.15"/>
        <path id="Caminho_9-2" data-name="Caminho 9" d="M5.292,986.515S394.679,702.473,940.12,943.639s986.408,26.56,986.408,26.56" transform="translate(-5.528 2211)" fill="none" stroke="#000" stroke-width="1" opacity="0.21"/>
        <path id="Caminho_10-2" data-name="Caminho 10" d="M5.292,986.515S394.679,702.473,940.12,943.639s986.408,26.56,986.408,26.56" transform="translate(-5.528 2241)" fill="none" stroke="#000" stroke-width="1" opacity="0.32"/>
        <path id="Caminho_11-2" data-name="Caminho 11" d="M5.292,986.515S394.679,702.473,940.12,943.639s986.408,26.56,986.408,26.56" transform="translate(-5.528 2271)" fill="none" stroke="#000" stroke-width="1" opacity="0.38"/>
        <path id="Caminho_12-2" data-name="Caminho 12" d="M5.292,986.515S394.679,702.473,940.12,943.639s986.408,26.56,986.408,26.56" transform="translate(-5.528 2301)" fill="none" stroke="#000" stroke-width="1" opacity="0.5"/>
        <path id="Caminho_13-2" data-name="Caminho 13" d="M5.292,986.515S394.679,702.473,940.12,943.639s986.408,26.56,986.408,26.56" transform="translate(-5.528 2331)" fill="none" stroke="#000" stroke-width="1" opacity="0.71"/>
        <path id="Caminho_14-2" data-name="Caminho 14" d="M5.292,986.515S394.679,702.473,940.12,943.639s986.408,26.56,986.408,26.56" transform="translate(-5.528 2361)" fill="none" stroke="#000" stroke-width="1" opacity="0.87"/>
        <path id="Caminho_15-2" data-name="Caminho 15" d="M5.292,986.515S394.679,702.473,940.12,943.639s986.408,26.56,986.408,26.56" transform="translate(-5.528 2391)" fill="none" stroke="#000" stroke-width="1" opacity="0.82"/>
        <path id="Caminho_16-2" data-name="Caminho 16" d="M5.292,986.515S394.679,702.473,940.12,943.639s986.408,26.56,986.408,26.56" transform="translate(-5.528 2421)" fill="none" stroke="#000" stroke-width="1" opacity="0.85"/>
        <path id="Caminho_17-2" data-name="Caminho 17" d="M5.292,986.515S394.679,702.473,940.12,943.639s986.408,26.56,986.408,26.56" transform="translate(-5.528 2451)" fill="none" stroke="#000" stroke-width="1" opacity="0.92"/>
        <path id="Caminho_18-2" data-name="Caminho 18" d="M5.292,986.515S394.679,702.473,940.12,943.639s986.408,26.56,986.408,26.56" transform="translate(-5.528 2481)" fill="none" stroke="#000" stroke-width="1" opacity="0.88"/>
        <path id="Caminho_19-2" data-name="Caminho 19" d="M5.292,986.515S394.679,702.473,940.12,943.639c472.351,208.85,866.353,75.891,963.745,36.394,14.745-5.98,22.663-9.833,22.663-9.833" transform="translate(-5.528 2511)" fill="none" stroke="#000" stroke-width="2" opacity="0.4"/>
        <path id="Caminho_20-2" data-name="Caminho 20" d="M5.292,986.515S394.679,702.473,940.12,943.639s986.408,26.56,986.408,26.56" transform="translate(-5.528 2541)" fill="none" stroke="#000" stroke-width="2" opacity="0.47"/>
        <path id="Caminho_21-2" data-name="Caminho 21" d="M5.292,986.515S394.679,702.473,940.12,943.639s986.408,26.56,986.408,26.56" transform="translate(-5.528 2571)" fill="none" stroke="#000" stroke-width="2" opacity="0.69"/>
        <path id="Caminho_22-2" data-name="Caminho 22" d="M5.292,986.515S394.679,702.473,940.12,943.639s986.408,26.56,986.408,26.56" transform="translate(-5.528 2601)" fill="none" stroke="#000" stroke-width="2" opacity="0.79"/>
        <path id="Caminho_23-2" data-name="Caminho 23" d="M5.292,986.515S394.679,702.473,940.12,943.639s986.408,26.56,986.408,26.56" transform="translate(-5.528 2631)" fill="none" stroke="#000" stroke-width="2"/>
        <path id="Caminho_24-2" data-name="Caminho 24" d="M5.292,986.515S394.679,702.473,940.12,943.639s986.408,26.56,986.408,26.56" transform="translate(-5.528 2661)" fill="none" stroke="#000" stroke-width="2"/>
        <path id="Caminho_25-2" data-name="Caminho 25" d="M5.292,986.515S394.679,702.473,940.12,943.639s986.408,26.56,986.408,26.56" transform="translate(-5.528 2691)" fill="none" stroke="#000" stroke-width="2"/>
        <path id="Caminho_26-2" data-name="Caminho 26" d="M5.292,986.515S394.679,702.473,940.12,943.639s986.408,26.56,986.408,26.56" transform="translate(-5.528 2721)" fill="none" stroke="#000" stroke-width="2"/>
        <path id="Caminho_27-2" data-name="Caminho 27" d="M5.292,986.515S394.679,702.473,940.12,943.639s986.408,26.56,986.408,26.56" transform="translate(-5.528 2751)" fill="none" stroke="#000" stroke-width="2"/>
        <path id="Caminho_28-2" data-name="Caminho 28" d="M5.292,986.515S394.679,702.473,940.12,943.639s986.408,26.56,986.408,26.56" transform="translate(-5.528 2774)" fill="none" stroke="#000" stroke-width="2"/>
        <path id="Caminho_29-2" data-name="Caminho 29" d="M5.292,986.515S394.679,702.473,940.12,943.639s986.408,26.56,986.408,26.56" transform="translate(-5.528 2797)" fill="none" stroke="#000" stroke-width="2"/>
        <path id="Caminho_30-2" data-name="Caminho 30" d="M5.292,986.515S394.679,702.473,940.12,943.639s986.408,26.56,986.408,26.56" transform="translate(-5.528 2820)" fill="none" stroke="#000" stroke-width="2"/>
        <path id="Caminho_31-2" data-name="Caminho 31" d="M5.292,986.515S394.679,702.473,940.12,943.639s986.408,26.56,986.408,26.56" transform="translate(-5.528 2843)" fill="none" stroke="#000" stroke-width="2"/>
      </g>
    </g>
    <path id="Caminho_33" data-name="Caminho 33" d="M0-172.939S147.512,19.037,358.492,71.928s281.709,1.7,582.268-46.3c683.089-109.083,978.728,534.782,978.728,534.782v620.974s-350.5,227.871-952.718,0-966.77,0-966.77,0Z" transform="translate(1919.488 6484.02) rotate(-180)" fill="#00a649"/>
    <g id="Grupo_4" data-name="Grupo 4" transform="translate(0 3364.944)">
      <g id="Grupo_1-3" data-name="Grupo 1" transform="translate(0.236)">
        <path id="Caminho_6-3" data-name="Caminho 6" d="M0-310.718S147.512-15.434,358.492,27.959,640.2,29.353,940.76-10.025c683.089-89.5,978.728,438.756,978.728,438.756V938.2s-350.5,186.954-952.718,0S0,938.2,0,938.2Z" transform="translate(1.437 2853.795)" fill="#fc032b"/>
        <path id="Caminho_7-3" data-name="Caminho 7" d="M5.292,986.515S394.679,702.473,940.12,943.639s986.408,26.56,986.408,26.56" transform="translate(-5.528 2151)" fill="none" stroke="#000" stroke-width="1" opacity="0.07"/>
        <path id="Caminho_8-3" data-name="Caminho 8" d="M5.292,986.515S394.679,702.473,940.12,943.639s986.408,26.56,986.408,26.56" transform="translate(-5.528 2181)" fill="none" stroke="#000" stroke-width="1" opacity="0.15"/>
        <path id="Caminho_9-3" data-name="Caminho 9" d="M5.292,986.515S394.679,702.473,940.12,943.639s986.408,26.56,986.408,26.56" transform="translate(-5.528 2211)" fill="none" stroke="#000" stroke-width="1" opacity="0.21"/>
        <path id="Caminho_10-3" data-name="Caminho 10" d="M5.292,986.515S394.679,702.473,940.12,943.639s986.408,26.56,986.408,26.56" transform="translate(-5.528 2241)" fill="none" stroke="#000" stroke-width="1" opacity="0.32"/>
        <path id="Caminho_11-3" data-name="Caminho 11" d="M5.292,986.515S394.679,702.473,940.12,943.639s986.408,26.56,986.408,26.56" transform="translate(-5.528 2271)" fill="none" stroke="#000" stroke-width="1" opacity="0.38"/>
        <path id="Caminho_12-3" data-name="Caminho 12" d="M5.292,986.515S394.679,702.473,940.12,943.639s986.408,26.56,986.408,26.56" transform="translate(-5.528 2301)" fill="none" stroke="#000" stroke-width="1" opacity="0.5"/>
        <path id="Caminho_13-3" data-name="Caminho 13" d="M5.292,986.515S394.679,702.473,940.12,943.639s986.408,26.56,986.408,26.56" transform="translate(-5.528 2331)" fill="none" stroke="#000" stroke-width="1" opacity="0.71"/>
        <path id="Caminho_14-3" data-name="Caminho 14" d="M5.292,986.515S394.679,702.473,940.12,943.639s986.408,26.56,986.408,26.56" transform="translate(-5.528 2361)" fill="none" stroke="#000" stroke-width="1" opacity="0.87"/>
        <path id="Caminho_15-3" data-name="Caminho 15" d="M5.292,986.515S394.679,702.473,940.12,943.639s986.408,26.56,986.408,26.56" transform="translate(-5.528 2391)" fill="none" stroke="#000" stroke-width="1" opacity="0.82"/>
        <path id="Caminho_16-3" data-name="Caminho 16" d="M5.292,986.515S394.679,702.473,940.12,943.639s986.408,26.56,986.408,26.56" transform="translate(-5.528 2421)" fill="none" stroke="#000" stroke-width="1" opacity="0.85"/>
        <path id="Caminho_17-3" data-name="Caminho 17" d="M5.292,986.515S394.679,702.473,940.12,943.639s986.408,26.56,986.408,26.56" transform="translate(-5.528 2451)" fill="none" stroke="#000" stroke-width="1" opacity="0.92"/>
        <path id="Caminho_18-3" data-name="Caminho 18" d="M5.292,986.515S394.679,702.473,940.12,943.639s986.408,26.56,986.408,26.56" transform="translate(-5.528 2481)" fill="none" stroke="#000" stroke-width="1" opacity="0.88"/>
        <path id="Caminho_19-3" data-name="Caminho 19" d="M5.292,986.515S394.679,702.473,940.12,943.639c472.351,208.85,866.353,75.891,963.745,36.394,14.745-5.98,22.663-9.833,22.663-9.833" transform="translate(-5.528 2511)" fill="none" stroke="#000" stroke-width="2" opacity="0.4"/>
        <path id="Caminho_20-3" data-name="Caminho 20" d="M5.292,986.515S394.679,702.473,940.12,943.639s986.408,26.56,986.408,26.56" transform="translate(-5.528 2541)" fill="none" stroke="#000" stroke-width="2" opacity="0.47"/>
        <path id="Caminho_21-3" data-name="Caminho 21" d="M5.292,986.515S394.679,702.473,940.12,943.639s986.408,26.56,986.408,26.56" transform="translate(-5.528 2571)" fill="none" stroke="#000" stroke-width="2" opacity="0.69"/>
        <path id="Caminho_22-3" data-name="Caminho 22" d="M5.292,986.515S394.679,702.473,940.12,943.639s986.408,26.56,986.408,26.56" transform="translate(-5.528 2601)" fill="none" stroke="#000" stroke-width="2" opacity="0.79"/>
        <path id="Caminho_23-3" data-name="Caminho 23" d="M5.292,986.515S394.679,702.473,940.12,943.639s986.408,26.56,986.408,26.56" transform="translate(-5.528 2631)" fill="none" stroke="#000" stroke-width="2"/>
        <path id="Caminho_24-3" data-name="Caminho 24" d="M5.292,986.515S394.679,702.473,940.12,943.639s986.408,26.56,986.408,26.56" transform="translate(-5.528 2661)" fill="none" stroke="#000" stroke-width="2"/>
        <path id="Caminho_25-3" data-name="Caminho 25" d="M5.292,986.515S394.679,702.473,940.12,943.639s986.408,26.56,986.408,26.56" transform="translate(-5.528 2691)" fill="none" stroke="#000" stroke-width="2"/>
        <path id="Caminho_26-3" data-name="Caminho 26" d="M5.292,986.515S394.679,702.473,940.12,943.639s986.408,26.56,986.408,26.56" transform="translate(-5.528 2721)" fill="none" stroke="#000" stroke-width="2"/>
        <path id="Caminho_27-3" data-name="Caminho 27" d="M5.292,986.515S394.679,702.473,940.12,943.639s986.408,26.56,986.408,26.56" transform="translate(-5.528 2751)" fill="none" stroke="#000" stroke-width="2"/>
        <path id="Caminho_28-3" data-name="Caminho 28" d="M5.292,986.515S394.679,702.473,940.12,943.639s986.408,26.56,986.408,26.56" transform="translate(-5.528 2774)" fill="none" stroke="#000" stroke-width="2"/>
        <path id="Caminho_29-3" data-name="Caminho 29" d="M5.292,986.515S394.679,702.473,940.12,943.639s986.408,26.56,986.408,26.56" transform="translate(-5.528 2797)" fill="none" stroke="#000" stroke-width="2"/>
        <path id="Caminho_30-3" data-name="Caminho 30" d="M5.292,986.515S394.679,702.473,940.12,943.639s986.408,26.56,986.408,26.56" transform="translate(-5.528 2820)" fill="none" stroke="#000" stroke-width="2"/>
        <path id="Caminho_31-3" data-name="Caminho 31" d="M5.292,986.515S394.679,702.473,940.12,943.639s986.408,26.56,986.408,26.56" transform="translate(-5.528 2843)" fill="none" stroke="#000" stroke-width="2"/>
      </g>
    </g>
    <path id="Caminho_34" data-name="Caminho 34" d="M0-172.939S147.512,19.037,358.492,71.928s281.709,1.7,582.268-46.3c683.089-109.083,978.728,485.453,978.728,485.453v670.3s-350.5,227.871-952.718,0-966.77,0-966.77,0Z" transform="translate(1919.488 8316.02) rotate(-180)" fill="#00a649"/>
  </g>
</svg>
